<?xml version="1.0" encoding="UTF-8"?>
<svg xmlns="http://www.w3.org/2000/svg" xmlns:xlink="http://www.w3.org/1999/xlink" width="627.9pt" height="406.5pt" viewBox="0 0 627.9 406.5" version="1.1">
<defs>
<clipPath id="clip1">
  <path d="M 570 270 L 627.898438 270 L 627.898438 315 L 570 315 Z M 570 270 "/>
</clipPath>
<clipPath id="clip2">
  <path d="M 68 340 L 557 340 L 557 406.5 L 68 406.5 Z M 68 340 "/>
</clipPath>
</defs>
<g id="surface1">
<path style=" stroke:none;fill-rule:evenodd;fill:rgb(96.09375%,70.896912%,7.446289%);fill-opacity:1;" d="M 269.859375 57.339844 L 317.132813 54.320313 L 323.171875 54.320313 C 330.621094 54.320313 356.359375 59.789063 356.359375 54.320313 L 356.359375 53.3125 C 356.359375 45.195313 343.679688 26.402344 338.664063 22.695313 C 335.109375 20.074219 314.34375 -0.0507813 313.109375 -0.0507813 C 312.695313 -0.0507813 289.050781 21.503906 286.699219 23.851563 C 280.949219 29.585938 269.859375 46.5 269.859375 57.339844 Z M 269.859375 57.339844 "/>
<path style=" stroke:none;fill-rule:evenodd;fill:rgb(80.859375%,16.479492%,22.363281%);fill-opacity:1;" d="M 125.023438 168.097656 C 126.085938 167.8125 152.953125 147.859375 156.464844 145.199219 C 164.859375 138.839844 181.03125 130.273438 191.242188 125.640625 C 214.210938 115.226563 245.402344 103.65625 278.910156 103.65625 L 289.976563 103.65625 C 345.753906 103.65625 392.054688 134.515625 413.488281 169.304688 C 426.035156 189.675781 435.671875 208.503906 442.253906 235.152344 C 446.109375 250.738281 446.945313 257.859375 448.964844 275.761719 C 450.191406 286.675781 447.894531 314.09375 458.949219 314.09375 L 460.964844 314.09375 C 468.003906 314.09375 472.023438 308.285156 472.023438 301.003906 L 472.023438 278.851563 C 472.023438 226.992188 447.0625 173.035156 423.003906 144.675781 C 398.679688 116.007813 353.046875 83.519531 301.039063 83.519531 L 278.910156 83.519531 C 243.554688 83.519531 210.914063 98.199219 188.058594 111.382813 C 174.566406 119.164063 128.496094 155.085938 125.023438 168.097656 Z M 125.023438 168.097656 "/>
<path style=" stroke:none;fill-rule:evenodd;fill:rgb(80.859375%,16.479492%,22.363281%);fill-opacity:1;" d="M 106.921875 231.53125 L 106.921875 235.558594 C 106.921875 238.277344 107.402344 238.332031 107.925781 240.589844 C 110.183594 241.117188 110.238281 241.597656 112.960938 241.597656 L 116.980469 241.597656 C 121.515625 241.597656 146.085938 218.769531 150.398438 214.640625 C 158.066406 207.304688 175.910156 194.75 185.34375 189.214844 C 205.816406 177.199219 242.171875 157.019531 273.882813 157.019531 L 296.011719 157.019531 C 309.726563 157.019531 332.828125 166.78125 341.671875 172.730469 C 355.867188 182.277344 363.386719 189.886719 373.277344 203.515625 C 388.0625 223.898438 398.601563 267.722656 398.601563 303.019531 L 398.601563 314.09375 L 423.746094 314.09375 L 423.746094 294.964844 C 423.746094 205.453125 372.046875 130.84375 283.941406 130.84375 C 239.878906 130.84375 206.929688 147.628906 178.929688 164.667969 C 165.285156 172.96875 106.921875 217.605469 106.921875 231.53125 Z M 106.921875 231.53125 "/>
<path style=" stroke:none;fill-rule:evenodd;fill:rgb(80.859375%,16.479492%,22.363281%);fill-opacity:1;" d="M 98.878906 314.09375 L 131.058594 314.09375 C 152.195313 282.496094 224.296875 210.386719 272.878906 210.386719 L 286.960938 210.386719 C 296.796875 210.386719 314.878906 219.757813 320.421875 225.222656 C 326.671875 231.386719 337.246094 245.109375 337.246094 256.703125 L 337.246094 260.730469 C 337.246094 263.078125 334.5625 265.761719 332.21875 265.761719 L 328.195313 265.761719 C 313.429688 265.761719 307.960938 235.558594 278.910156 235.558594 L 270.867188 235.558594 C 235.144531 235.558594 175.589844 291.136719 160.226563 314.09375 L 195.429688 314.09375 C 198.742188 301.675781 250.238281 260.808594 269.886719 262.484375 L 283.941406 263.75 C 293.347656 270.054688 303.050781 279.570313 303.050781 294.964844 L 303.050781 314.09375 L 327.191406 314.09375 L 327.191406 298.992188 C 327.191406 289.746094 328.144531 278.851563 337.246094 278.851563 L 338.253906 278.851563 C 344.09375 278.851563 344.773438 287.148438 347.183594 290.949219 L 348.3125 305.03125 L 348.3125 314.09375 L 372.449219 314.09375 L 372.449219 292.949219 C 372.449219 263.796875 360.847656 235.976563 348.738281 218.015625 C 336.6875 200.144531 312.527344 185.214844 282.933594 185.214844 L 272.878906 185.214844 C 269.035156 185.214844 246.046875 190.851563 242.558594 192.117188 C 232.179688 195.890625 225.316406 198.953125 215.886719 203.675781 C 197.007813 213.128906 186.679688 222.386719 170.890625 234.148438 C 149.003906 250.453125 114.296875 291.042969 98.878906 314.09375 Z M 98.878906 314.09375 "/>
<path style=" stroke:none;fill-rule:evenodd;fill:rgb(96.09375%,70.896912%,7.446289%);fill-opacity:1;" d="M 149.488281 112.945313 L 188.839844 86.566406 L 194.050781 83.535156 C 200.496094 79.785156 225.492188 71.574219 222.742188 66.847656 L 222.238281 65.976563 C 218.15625 58.960938 197.746094 49.089844 191.546875 48.40625 C 187.160156 47.925781 159.089844 40.96875 158.023438 41.589844 C 157.664063 41.796875 148.0625 72.316406 147.214844 75.53125 C 145.128906 83.378906 144.039063 103.574219 149.488281 112.945313 Z M 149.488281 112.945313 "/>
<path style=" stroke:none;fill-rule:evenodd;fill:rgb(96.09375%,70.896912%,7.446289%);fill-opacity:1;" d="M 71.308594 223.371094 L 91.671875 180.601563 L 94.609375 175.332031 C 98.238281 168.816406 115.539063 148.996094 110.761719 146.335938 L 109.882813 145.84375 C 102.796875 141.894531 80.207031 143.824219 74.523438 146.402344 C 70.503906 148.230469 42.816406 156.578125 42.214844 157.660156 C 42.015625 158.019531 49.339844 189.164063 50.246094 192.363281 C 52.460938 200.175781 61.839844 218.09375 71.308594 223.371094 Z M 71.308594 223.371094 "/>
<path style=" stroke:none;fill-rule:evenodd;fill:rgb(96.09375%,70.896912%,7.446289%);fill-opacity:1;" d="M 54.964844 316.074219 L 54.269531 309 L 54.066406 302.96875 C 53.8125 295.515625 58.40625 269.609375 52.941406 269.796875 L 51.9375 269.832031 C 43.828125 270.105469 25.46875 283.414063 21.9375 288.554688 C 19.433594 292.191406 0.0273438 313.628906 0.0664063 314.863281 C 0.0703125 314.917969 0.453125 315.355469 1.117188 316.074219 Z M 54.964844 316.074219 "/>
<path style=" stroke:none;fill-rule:evenodd;fill:rgb(80.859375%,16.479492%,22.363281%);fill-opacity:1;" d="M 83.789063 281.875 C 90.84375 281.875 104.910156 266.125 104.910156 258.714844 C 104.910156 254.464844 101.777344 248.648438 97.867188 248.648438 L 94.851563 248.648438 C 89.417969 248.648438 77.753906 266.871094 77.753906 272.8125 L 77.753906 274.824219 C 77.753906 278.21875 79.53125 281.875 82.78125 281.875 Z M 83.789063 281.875 "/>
<path style=" stroke:none;fill-rule:evenodd;fill:rgb(96.09375%,70.896912%,7.446289%);fill-opacity:1;" d="M 476.164063 112.945313 L 436.820313 86.566406 L 431.601563 83.535156 C 425.15625 79.785156 400.164063 71.574219 402.910156 66.847656 L 403.421875 65.976563 C 407.503906 58.960938 427.90625 49.085938 434.105469 48.40625 C 438.496094 47.925781 466.5625 40.96875 467.632813 41.589844 C 467.992188 41.796875 477.589844 72.316406 478.445313 75.53125 C 480.53125 83.378906 481.617188 103.574219 476.164063 112.945313 Z M 476.164063 112.945313 "/>
<path style=" stroke:none;fill-rule:evenodd;fill:rgb(96.09375%,70.896912%,7.446289%);fill-opacity:1;" d="M 554.347656 223.371094 L 533.980469 180.601563 L 531.046875 175.332031 C 527.421875 168.816406 510.117188 148.996094 514.890625 146.335938 L 515.773438 145.84375 C 522.863281 141.894531 545.453125 143.824219 551.128906 146.402344 C 555.152344 148.230469 582.839844 156.578125 583.4375 157.65625 C 583.640625 158.019531 576.3125 189.164063 575.40625 192.363281 C 573.195313 200.175781 563.820313 218.09375 554.347656 223.371094 Z M 554.347656 223.371094 "/>
<path style=" stroke:none;fill-rule:evenodd;fill:rgb(96.09375%,70.896912%,7.446289%);fill-opacity:1;" d="M 570.691406 316.074219 L 571.382813 309 L 571.589844 302.96875 C 571.839844 295.515625 567.246094 269.609375 572.714844 269.796875 L 573.71875 269.832031 C 581.835938 270.105469 600.183594 283.414063 603.71875 288.550781 C 606.21875 292.191406 625.628906 313.628906 625.589844 314.863281 C 625.589844 314.917969 625.203125 315.355469 624.539063 316.074219 Z M 570.691406 316.074219 "/>
<path style=" stroke:none;fill-rule:evenodd;fill:rgb(80.859375%,16.479492%,22.363281%);fill-opacity:1;" d="M 541.867188 281.875 C 534.808594 281.875 520.746094 266.125 520.746094 258.714844 C 520.746094 254.464844 523.878906 248.648438 527.785156 248.648438 L 530.804688 248.648438 C 536.234375 248.648438 547.902344 266.871094 547.902344 272.8125 L 547.902344 274.824219 C 547.902344 278.21875 546.128906 281.875 542.871094 281.875 Z M 541.867188 281.875 "/>
<g clip-path="url(#clip1)" clip-rule="nonzero">
<path style=" stroke:none;fill-rule:evenodd;fill:rgb(96.09375%,70.896912%,7.446289%);fill-opacity:1;" d="M 627.921875 314.09375 C 627.601563 312.890625 617.550781 303.074219 615.683594 301.171875 C 613.949219 299.402344 610.972656 295.6875 609.976563 293.796875 C 606.757813 287.679688 607.238281 291.511719 603.636719 288.0625 C 596.003906 280.753906 584.910156 270.796875 570.265625 270.824219 L 572.929688 306.011719 L 572.605469 314.09375 Z M 627.921875 314.09375 "/>
</g>
<path style=" stroke:none;fill-rule:evenodd;fill:rgb(80.859375%,16.479492%,22.363281%);fill-opacity:1;" d="M 223.59375 314.09375 C 229.628906 314.09375 235.671875 314.0625 241.710938 314.105469 C 251.324219 314.167969 250.546875 311.074219 255.777344 311.074219 L 259.800781 311.074219 L 259.800781 314.09375 L 280.921875 314.09375 L 280.921875 303.019531 C 280.921875 297.859375 276.960938 294.496094 275.894531 289.929688 C 270.953125 289.515625 272.214844 287.914063 267.847656 287.914063 L 265.839844 287.914063 C 250.195313 287.914063 228.960938 303.945313 223.59375 314.09375 Z M 223.59375 314.09375 "/>
<path style=" stroke:none;fill-rule:evenodd;fill:rgb(96.09375%,70.896912%,7.446289%);fill-opacity:1;" d="M 395.585938 89.558594 C 396.859375 91.992188 415.015625 104.757813 419.191406 108.21875 C 423.523438 111.8125 421.777344 112.269531 424.128906 114.351563 C 426.578125 116.527344 426.460938 115.21875 429.847656 118.695313 C 433.121094 122.054688 436.320313 124.261719 440.117188 128.546875 C 447.425781 136.800781 452.253906 143.808594 459.046875 151.890625 C 464.710938 158.621094 470.035156 168.90625 475.324219 176.875 C 486.695313 194.011719 491.3125 215.851563 498.609375 237.136719 C 504.53125 254.417969 507.226563 287.957031 507.226563 311.074219 L 507.226563 314.09375 L 554.503906 314.09375 L 554.503906 311.074219 C 554.503906 297.367188 549.386719 259.0625 544.441406 251.667969 C 544.441406 238.230469 521.679688 189.140625 514.269531 185.214844 C 514.015625 173.886719 473.933594 134.578125 464.722656 127.078125 C 455.710938 119.730469 407.914063 89.835938 395.585938 89.558594 Z M 395.585938 89.558594 "/>
<g clip-path="url(#clip2)" clip-rule="nonzero">
<path style=" stroke:none;fill-rule:evenodd;fill:rgb(80.859375%,16.479492%,22.363281%);fill-opacity:1;" d="M 100.757813 355.351563 L 100.65625 355.351563 L 92.023438 381.542969 L 109.1875 381.542969 Z M 117.515625 406.449219 L 113.253906 392.855469 L 88.363281 392.855469 L 83.589844 406.449219 L 68.660156 406.449219 L 92.734375 340.566406 L 109.089844 340.566406 L 132.855469 406.449219 Z M 174.085938 355.351563 L 173.980469 355.351563 L 165.347656 381.542969 L 182.511719 381.542969 Z M 190.839844 406.449219 L 186.574219 392.855469 L 161.6875 392.855469 L 156.914063 406.449219 L 141.984375 406.449219 L 166.058594 340.566406 L 182.410156 340.566406 L 206.179688 406.449219 Z M 242.734375 395.238281 C 248.894531 395.238281 253.363281 393.367188 256.140625 389.632813 C 258.921875 385.894531 260.304688 380.289063 260.304688 372.8125 C 260.304688 369.109375 259.96875 365.933594 259.289063 363.289063 C 258.613281 360.640625 257.511719 358.476563 255.988281 356.789063 C 254.464844 355.101563 252.519531 353.878906 250.148438 353.117188 C 247.777344 352.355469 244.898438 351.976563 241.515625 351.976563 L 231.050781 351.976563 L 231.050781 395.238281 Z M 217.339844 406.449219 L 217.339844 340.566406 L 243.445313 340.566406 C 247.980469 340.566406 252.179688 341.308594 256.039063 342.796875 C 259.898438 344.285156 263.199219 346.417969 265.941406 349.199219 C 268.683594 351.976563 270.839844 355.351563 272.394531 359.320313 C 273.949219 363.289063 274.730469 367.785156 274.730469 372.8125 C 274.730469 377.839844 274.035156 382.421875 272.648438 386.554688 C 271.257813 390.691406 269.277344 394.230469 266.703125 397.171875 C 264.132813 400.117188 261.050781 402.398438 257.464844 404.019531 C 253.871094 405.640625 249.910156 406.449219 245.578125 406.449219 Z M 327.433594 406.449219 L 327.433594 376.882813 L 301.128906 376.882813 L 301.128906 406.449219 L 287.007813 406.449219 L 287.007813 340.566406 L 301.128906 340.566406 L 301.128906 365.371094 L 327.433594 365.371094 L 327.433594 340.566406 L 341.652344 340.566406 L 341.652344 406.449219 Z M 384.710938 355.351563 L 384.605469 355.351563 L 375.972656 381.542969 L 393.140625 381.542969 Z M 401.46875 406.449219 L 397.203125 392.855469 L 372.316406 392.855469 L 367.546875 406.449219 L 352.609375 406.449219 L 376.683594 340.566406 L 393.039063 340.566406 L 416.808594 406.449219 Z M 458.03125 355.351563 L 457.929688 355.351563 L 449.296875 381.542969 L 466.464844 381.542969 Z M 474.796875 406.449219 L 470.527344 392.855469 L 445.640625 392.855469 L 440.867188 406.449219 L 425.933594 406.449219 L 450.007813 340.566406 L 466.363281 340.566406 L 490.132813 406.449219 Z M 515.003906 351.976563 L 515.003906 369.539063 L 532.679688 369.539063 C 536.46875 369.539063 539.144531 368.710938 540.703125 367.058594 C 542.257813 365.40625 543.039063 363.320313 543.039063 360.808594 C 543.039063 358.226563 542.277344 356.109375 540.753906 354.457031 C 539.230469 352.804688 536.710938 351.976563 533.1875 351.976563 Z M 540.601563 406.449219 L 540.601563 389.484375 C 540.601563 386.308594 539.855469 384.042969 538.367188 382.6875 C 536.878906 381.328125 534.101563 380.652344 530.035156 380.652344 L 515.003906 380.652344 L 515.003906 406.449219 L 501.296875 406.449219 L 501.296875 340.566406 L 535.523438 340.566406 C 538.636719 340.566406 541.464844 341.042969 544.003906 342.003906 C 546.546875 342.964844 548.726563 344.285156 550.554688 345.972656 C 552.382813 347.660156 553.789063 349.675781 554.769531 352.027344 C 555.753906 354.375 556.242188 356.90625 556.242188 359.617188 C 556.242188 363.1875 555.378906 366.347656 553.652344 369.09375 C 551.925781 371.835938 549.4375 373.773438 546.1875 374.898438 C 549.171875 375.824219 551.28125 377.246094 552.535156 379.164063 C 553.789063 381.082031 554.414063 383.960938 554.414063 387.796875 L 554.414063 406.449219 Z M 540.601563 406.449219 "/>
</g>
</g>
</svg>
